@startuml
'https://plantuml.com/class-diagram

class FETS2D3U1M{
N_im
dN_imr
eta_ip
}

FETriangularMesh --> FETS2D3U1M : fets >

class Simulator {
 run()
}

TStep --> Simulator

class TStep {
}

TStepBC --|> TStep

class TStepBC {
    domains = [(xdomain, tmodel)]
    bc
}

WBShellAnalysis --|> TStepBC

class WBCell {
}

class WBCell4P{
}

class WBCell5P{
}

WBCell4P --|> WBCell

WBCell5P --|> WBCell

class WBTessellation {

}

WBTessellation --> WBCell: cell_spec >

class FETriangularMesh{
}

class WBShellGeometry{
}

WBShellGeometry --|> WBTessellation

WBShellGeometry <.. FETriangularMesh : geo <


class TModel {
    get_corr_pred()
}

class XModel{
    field_mappings()
}

class TriXDomainFE{
}

XDomainFE --|> XModel
TriXDomainFE --|> XDomainFE

TriXDomainFE --> FETriangularMesh : mesh >

WBShellAnalysis --> WBShellGeometry : geo >
WBShellAnalysis --> TModel : tmodel >
WBShellAnalysis --> TriXDomainFE : xmodel >

@enduml